<?xml version="1.0" standalone="no"?>
<!DOCTYPE svg PUBLIC "-//W3C//DTD SVG 20010904//EN"
 "http://www.w3.org/TR/2001/REC-SVG-20010904/DTD/svg10.dtd">
<svg version="1.0" xmlns="http://www.w3.org/2000/svg"
 width="1208.000000pt" height="1208.000000pt" viewBox="0 0 1208.000000 1208.000000"
 preserveAspectRatio="xMidYMid meet">
<metadata>
Created by potrace 1.11, written by Peter Selinger 2001-2013
</metadata>
<g transform="translate(0.000000,1208.000000) scale(0.100000,-0.100000)"
fill="#000000" stroke="none">
<path d="M130 9492 c0 -4 149 -192 160 -202 3 -3 61 -75 130 -160 69 -85 130
-162 137 -170 7 -8 65 -80 129 -160 65 -80 121 -149 126 -155 30 -36 46 -56
68 -85 14 -18 30 -38 35 -44 6 -6 39 -47 75 -91 35 -44 67 -82 70 -85 3 -3 17
-21 30 -40 13 -19 29 -39 36 -45 6 -5 69 -82 140 -170 70 -88 131 -162 134
-165 3 -3 18 -23 35 -45 16 -22 34 -44 40 -50 6 -5 23 -26 37 -45 15 -19 37
-47 50 -62 13 -15 33 -40 45 -55 12 -15 30 -38 40 -50 10 -12 27 -33 38 -47
11 -14 29 -36 40 -49 41 -49 61 -73 95 -117 19 -25 37 -47 40 -50 3 -3 71 -86
150 -185 79 -99 147 -182 150 -185 3 -3 23 -27 45 -55 21 -27 42 -52 45 -55 3
-3 19 -23 36 -45 16 -22 34 -45 40 -51 14 -16 150 -184 253 -312 14 -18 41
-50 58 -70 18 -20 33 -39 33 -42 0 -4 6340 -8 6340 -4 0 0 -9 12 -21 25 -11
13 -30 37 -42 52 -12 15 -30 38 -40 50 -10 12 -31 37 -45 56 -58 72 -286 357
-306 381 -11 14 -37 46 -56 70 -19 25 -40 52 -47 60 -7 8 -91 114 -188 235
-97 121 -189 236 -205 255 -16 19 -60 76 -100 125 -39 50 -76 97 -83 105 -7 8
-39 48 -71 88 -32 39 -63 73 -70 73 -6 1 -18 2 -26 3 -8 1 -20 -2 -27 -7 -6
-4 -14 -4 -17 1 -5 9 -59 8 -75 -3 -6 -3 -11 -2 -11 3 0 5 -12 7 -27 5 -32 -5
-38 -5 -73 0 -14 2 -31 -1 -37 -6 -7 -5 -13 -6 -13 -1 0 5 -16 9 -35 9 -19 0
-35 -4 -35 -8 0 -5 -5 -5 -12 -1 -18 11 -78 11 -78 1 0 -6 -5 -6 -12 0 -7 5
-38 7 -68 6 -69 -4 -62 -4 -143 -1 -37 2 -67 -1 -67 -5 0 -5 -5 -5 -11 -2 -16
11 -69 12 -69 2 0 -4 -5 -5 -11 -2 -16 11 -69 12 -69 2 0 -4 -5 -5 -11 -2 -14
9 -69 13 -69 5 0 -3 -9 -6 -20 -6 -11 0 -20 3 -20 6 0 8 -43 5 -57 -3 -7 -4
-14 -3 -17 1 -3 5 -18 7 -33 5 -16 -2 -34 -4 -40 -3 -7 0 -26 0 -43 0 -16 0
-37 0 -45 0 -69 0 -107 0 -117 0 -7 -1 -25 1 -40 3 -16 2 -28 0 -28 -6 0 -6
-5 -6 -12 -1 -16 11 -39 11 -55 1 -7 -5 -13 -5 -13 0 0 4 -40 8 -90 8 -49 0
-90 -4 -90 -8 0 -5 -5 -5 -11 -2 -16 11 -69 12 -69 2 0 -4 -5 -5 -11 -2 -16
11 -69 12 -69 2 0 -4 -5 -5 -11 -2 -15 10 -69 13 -69 4 0 -6 -22 -5 -40 1 -15
6 -47 4 -62 -3 -10 -4 -18 -4 -18 1 0 5 -12 7 -27 5 -32 -5 -38 -5 -73 0 -14
2 -31 -1 -37 -6 -7 -5 -13 -6 -13 -1 0 5 -16 9 -35 9 -19 0 -35 -4 -35 -8 0
-5 -5 -5 -12 -1 -18 11 -78 11 -78 1 0 -6 -5 -6 -12 0 -7 5 -38 7 -68 6 -69
-4 -62 -4 -143 -1 -37 2 -67 -1 -67 -5 0 -5 -5 -5 -11 -2 -16 11 -69 12 -69 2
0 -4 -5 -5 -11 -2 -16 11 -69 12 -69 2 0 -4 -5 -5 -11 -2 -14 9 -69 13 -69 5
0 -3 -9 -6 -20 -6 -11 0 -20 3 -20 6 0 8 -43 5 -57 -3 -7 -4 -14 -3 -17 1 -3
5 -18 7 -33 5 -16 -2 -34 -4 -40 -3 -7 0 -26 0 -43 0 -16 0 -37 0 -45 0 -69 0
-107 0 -117 0 -7 -1 -25 1 -40 3 -16 2 -28 0 -28 -6 0 -6 -5 -6 -12 -1 -16 11
-39 11 -55 1 -7 -5 -13 -5 -13 0 0 4 -40 8 -90 8 -49 0 -90 -4 -90 -8 0 -5 -5
-5 -11 -2 -16 11 -69 12 -69 2 0 -4 -5 -5 -11 -2 -16 11 -69 12 -69 2 0 -4 -5
-5 -11 -2 -16 11 -69 12 -69 2 0 -4 -5 -5 -11 -2 -16 11 -69 12 -69 2 0 -4 -5
-5 -11 -2 -16 11 -69 12 -69 2 0 -4 -5 -5 -11 -2 -16 11 -69 12 -69 2 0 -4 -5
-5 -11 -2 -14 9 -69 13 -69 5 0 -3 -9 -6 -20 -6 -11 0 -20 3 -20 6 0 4 -17 5
-37 2 -42 -4 -47 -4 -83 1 -14 2 -31 -1 -37 -6 -8 -6 -13 -6 -13 0 0 6 -13 9
-29 7 -15 -2 -35 2 -43 9 -16 13 -118 138 -423 517 -104 129 -194 240 -200
247 -5 7 -14 18 -20 25 -5 7 -30 38 -55 68 -25 30 -49 61 -55 68 -5 7 -15 18
-20 25 -41 49 -115 140 -140 172 -16 21 -35 43 -40 49 -6 6 -26 31 -45 56 -19
25 -37 47 -40 50 -3 3 -35 41 -70 85 -35 44 -70 87 -77 95 -7 8 -29 35 -48 60
l-34 45 -931 0 c-511 0 -930 -2 -930 -3z"/>
<path d="M796 6023 c0 -1173 3 -1538 12 -1541 7 -2 12 1 12 7 0 6 9 21 19 33
30 35 302 369 336 412 17 22 35 44 40 50 6 6 38 45 70 86 33 41 65 80 70 86 6
7 22 27 37 45 15 19 73 90 129 159 56 69 113 140 128 158 14 18 31 39 36 45
12 14 144 177 180 222 13 17 60 74 105 129 44 54 80 102 80 106 0 5 -6 15 -13
22 -6 7 -32 38 -57 68 -25 30 -49 60 -55 66 -5 7 -20 25 -32 40 -27 35 -212
264 -258 319 -18 22 -58 72 -89 110 -30 39 -62 77 -69 85 -7 8 -40 49 -73 90
-32 41 -63 80 -69 86 -5 6 -22 26 -37 45 -60 75 -157 195 -295 364 -54 66
-120 149 -148 183 -27 34 -52 62 -55 62 -3 0 -5 -692 -4 -1537z"/>
<path d="M2655 5668 c-11 -13 -55 -68 -99 -123 -44 -55 -85 -105 -90 -111 -6
-7 -23 -27 -38 -45 -15 -19 -51 -63 -80 -100 -29 -36 -64 -80 -78 -98 -14 -18
-32 -40 -41 -49 -8 -10 -33 -39 -55 -67 -21 -27 -43 -55 -49 -61 -5 -6 -23
-28 -40 -49 -31 -40 -192 -240 -250 -310 -18 -22 -86 -105 -150 -185 -64 -80
-124 -154 -133 -165 -9 -11 -38 -47 -65 -80 -26 -33 -55 -69 -65 -80 -10 -11
-36 -42 -57 -70 -22 -27 -42 -52 -45 -55 -3 -3 -32 -39 -64 -80 -33 -41 -68
-84 -78 -95 -9 -11 -48 -58 -85 -105 -37 -47 -73 -92 -80 -100 -20 -25 -117
-144 -128 -157 -5 -6 -22 -27 -36 -45 -15 -18 -99 -123 -188 -233 -89 -110
-204 -251 -254 -314 -123 -152 -130 -161 -147 -180 -8 -9 -31 -37 -50 -61 -19
-25 -45 -56 -57 -70 -13 -14 -23 -28 -23 -32 0 -5 418 -8 929 -8 l928 0 144
178 c79 97 149 184 156 192 197 242 236 290 348 430 42 52 84 104 93 115 36
41 187 228 197 243 6 9 15 21 21 27 6 5 58 69 115 140 57 72 106 132 109 135
5 4 74 90 88 110 4 6 1962 8 1962 2 0 -4 -76 -103 -106 -139 -11 -12 -31 -37
-46 -55 -14 -18 -108 -134 -208 -258 -100 -124 -203 -251 -228 -283 -26 -32
-58 -72 -72 -88 -51 -61 -85 -102 -339 -417 -144 -178 -261 -325 -261 -328 0
-2 418 -4 929 -4 l930 0 102 128 c57 70 124 152 149 183 25 30 61 75 80 99 19
24 58 71 85 105 28 33 77 94 110 135 32 41 62 77 65 80 3 3 21 25 40 50 19 25
37 47 40 50 3 3 53 64 110 135 57 72 106 132 109 135 4 3 69 84 146 180 161
201 171 212 208 254 15 17 27 33 27 36 0 3 790 6 1755 5 1746 0 1756 0 1773
20 9 11 51 63 92 115 41 52 80 102 87 110 33 41 127 157 141 175 10 11 51 63
92 115 41 52 77 97 80 100 3 3 21 25 40 50 19 25 42 54 52 65 9 11 146 182
304 380 158 198 303 379 322 403 l34 42 -4594 0 -4594 0 -19 -22z"/>
</g>
</svg>
